# xmcd
#
# Track frame offsets: 
#        152
#        11522
#        23406
#        34468
#        46143
#        54014
#        61621
#        74717
#        85570
#        98234
#        110759
#        120386
#        131323
#        142078
#        154102
#        164843
#        176198
#        186075
#        197040
#        207224
#        214288
#        224653
#        234405
#        243266
#        253966
#        263286
#
# Disc length: 3524 seconds
#
# Revision: 0
# Processed by: cddbd v1.4PL0 Copyright (c) Steve Scherf et al.
# Submitted via: ExactAudioCopy v0.90a11
#
DISCID=740dc21a
DTITLE=Pee Wee King - Pee Wee King's Country Hoedown
DYEAR=1900
DGENRE=
TTITLE0=Fool's Gold
TTITLE1=Silver and Gold
TTITLE2=Sweetest Little Girl
TTITLE3=Darling Don't Cry
TTITLE4=Flower of Texas
TTITLE5=I Wanna Say Hello
TTITLE6=Let Me Hold You When You're Blue
TTITLE7=Where Oh Where Has My Little Love Gone
TTITLE8=I Need a Lot of Lovin'
TTITLE9=Where Were You Last Night
TTITLE10=I'm Just a Gad-About
TTITLE11=Song of the Early Settlers
TTITLE12=Take These Shackles From My Heart
TTITLE13=The Calendar Song
TTITLE14=Don't Apologize To Me
TTITLE15=Charleston Alley
TTITLE16=Opportunity
TTITLE17=Rich in Love
TTITLE18=I Can't Feel Those Kisses In Your Letters
TTITLE19=Mohegas
TTITLE20=Tadpole
TTITLE21=Your Kisses Aren't Kisses Anymore
TTITLE22=Tennessee Tango
TTITLE23=Darling, Stop Playing With My Heart
TTITLE24=Tears, Tears, Tears
TTITLE25="There's that man with the stopwatch..."
EXTD=
EXTT0=
EXTT1=
EXTT2=
EXTT3=
EXTT4=
EXTT5=
EXTT6=
EXTT7=
EXTT8=
EXTT9=
EXTT10=
EXTT11=
EXTT12=
EXTT13=
EXTT14=
EXTT15=
EXTT16=
EXTT17=
EXTT18=
EXTT19=
EXTT20=
EXTT21=
EXTT22=
EXTT23=
EXTT24=
EXTT25=
PLAYORDER=
